<?xml version="1.0" encoding="utf-8"?><!-- Uploaded to: SVG Repo, www.svgrepo.com, Generator: SVG Repo Mixer Tools -->
<svg width="800px" height="800px" viewBox="0 0 400 400" fill="none" xmlns="http://www.w3.org/2000/svg">
<path d="M279.088 175.094C305.075 138.711 186.478 105.636 133.085 126.898C38.1622 164.7 141.783 246.423 203.96 240.771C220.754 239.244 252.474 224.267 261.133 209.114C265.48 201.507 264.375 189.806 270.583 183.599" stroke="#000000" stroke-opacity="0.9" stroke-width="16" stroke-linecap="round" stroke-linejoin="round"/>
<path d="M287.593 159.501C310.134 142.853 305.354 104.175 281.45 90.5157C277.131 88.0479 266.875 84.0228 264.441 90.5157C259.342 104.111 274.567 115.622 267.748 129.261" stroke="#000000" stroke-opacity="0.9" stroke-width="16" stroke-linecap="round" stroke-linejoin="round"/>
<path d="M258.275 234.629C267.007 259.521 205.131 315.108 186.352 311.864C168.269 308.74 201.33 276.654 207.248 273.246" stroke="#000000" stroke-opacity="0.9" stroke-width="16" stroke-linecap="round" stroke-linejoin="round"/>
<path d="M206.276 272.825C209.851 264.21 212.145 253.904 219.883 247.221" stroke="#000000" stroke-opacity="0.9" stroke-width="16" stroke-linecap="round" stroke-linejoin="round"/>
<path d="M85.8353 180.763C27.2317 204.045 66.5621 234.628 105.009 209.972" stroke="#000000" stroke-opacity="0.9" stroke-width="16" stroke-linecap="round" stroke-linejoin="round"/>
<path d="M100.955 138.238C82.0005 121.867 100.976 92.5502 119.383 115.558" stroke="#000000" stroke-opacity="0.9" stroke-width="16" stroke-linecap="round" stroke-linejoin="round"/>
<path d="M288.335 185.584C325.441 161.559 363.018 219.036 334.843 217.146C329.631 216.796 330.18 216.042 326.028 215.794" stroke="#000000" stroke-opacity="0.9" stroke-width="16" stroke-linecap="round" stroke-linejoin="round"/>
<path d="M331.964 222.862C309.221 226.445 290.92 215.735 276.723 217.191" stroke="#000000" stroke-opacity="0.9" stroke-width="16" stroke-linecap="round" stroke-linejoin="round"/>
<path d="M251 182.5C249.989 178.5 250.117 174.107 250.117 172.305C245.06 171.003 221.001 189.703 217.042 189.703C214.346 189.703 207.863 162.004 204.298 162.004C198.2 160.5 180.5 187.566 175.898 185.746C174.24 185.091 175.876 160.571 170.5 156.588C168.25 154.92 142 176.578 139.5 174.107M139.5 174.107C135.29 169.947 134 161.02 134 155M139.5 174.107C136.769 178.277 130.161 185.841 125.633 192.635M134 155C131.578 155 114.956 162.294 114 162.723M134 155C138.101 152.208 145 144.473 147.79 139M249.989 172.085C251.726 166.557 256.774 162.393 259 160.5M215.927 189.351C213.216 193.176 205.994 212.891 198.2 220M176.042 185.52C173.224 190.693 165.278 201.817 159.424 212.885M172.5 153.5C174.104 150.433 181.519 141.418 187.121 139M204.298 160.5C209.005 154.48 216.909 147.748 225.344 144.473" stroke="#000000" stroke-opacity="0.5" stroke-width="12" stroke-linecap="round" stroke-linejoin="round"/>
</svg>