<?xml version="1.0" encoding="iso-8859-1"?>
<!-- Uploaded to: SVG Repo, www.svgrepo.com, Generator: SVG Repo Mixer Tools -->
<svg fill="#000000" height="800px" width="800px" version="1.1" id="Layer_1" xmlns="http://www.w3.org/2000/svg" xmlns:xlink="http://www.w3.org/1999/xlink" 
	 viewBox="0 0 512.001 512.001" xml:space="preserve">
<g>
	<g>
		<circle cx="307.707" cy="258.448" r="8.433"/>
	</g>
</g>
<g>
	<g>
		<path d="M510.155,132.801c-2.61-3.265-7.216-4.125-10.828-2.024l-111.47,64.862c-18.451,10.737-39.363,16.419-60.479,16.438
			c-3.912,0.003-7.758,0.113-11.56,0.291c-0.158-0.413-0.341-0.821-0.568-1.215l-37.662-65.232c-2.275-3.94-7.266-5.366-11.279-3.22
			c-1.555,0.831-38.499,20.734-74.035,53.064c-21.102,19.198-37.273,38.803-48.064,58.271
			c-13.449,24.266-18.558,48.391-15.253,71.755c-11.298,12.592-20.903,24.476-27.535,34.287c-2.478,3.666-6.623,5.856-11.085,5.856
			c-1.808,0-3.576-0.357-5.255-1.065c-20.811-8.757-46.16-17.841-76.374-18.822c-3.843-0.101-7.307,2.386-8.376,6.093
			c-1.069,3.71,0.517,7.669,3.849,9.617c47.111,27.529,78.955,82.687,79.242,137.25c0.02,3.859,2.659,7.213,6.404,8.141
			c0.677,0.168,1.358,0.249,2.03,0.249c3.055,0,5.943-1.668,7.435-4.457c12.093-22.608,19.761-45.296,24.132-71.399
			c1.045-6.237,6.105-10.892,12.304-11.315c40.359-2.766,119.216-23.567,163.876-45.6c23.338,7.939,28.03,46.609,28.074,46.991
			c0.331,2.987,2.228,5.572,4.979,6.787c1.09,0.481,2.249,0.717,3.402,0.717c1.756,0,3.5-0.549,4.966-1.617
			c17.599-12.82,27.718-28.423,30.077-46.375c3.086-23.481-8.229-44.095-14.087-52.947c7.943-9.815,15.319-20.766,22.081-32.847
			c10.273-18.352,22.357-35.054,35.919-49.639l94.729-101.886C512.59,140.75,512.764,136.066,510.155,132.801z M267.185,161.635
			l30.219,52.342c-24.183,3.125-45.831,10.12-64.591,20.951c-25.235,14.568-59.467,44.439-87.902,73.778
			C147.711,237.597,240.538,177.457,267.185,161.635z M354.379,378.932c-1.239,9.426-5.593,18.121-12.984,25.962
			c-3.458-12.455-10.54-29.765-24.491-40.033c10.07-6.537,19.562-14.391,28.44-23.521
			C350.075,349.478,356.386,363.654,354.379,378.932z M402.662,234.212c-14.475,15.568-27.356,33.361-38.285,52.886
			c-17.092,30.534-38.152,53.171-62.597,67.284c-39.063,22.551-126.042,46.198-167.207,49.02
			c-14.022,0.96-25.448,11.388-27.786,25.359c-2.263,13.518-5.475,26.044-9.816,38.111c-3.819-18.967-10.89-37.611-20.973-55.075
			c-9.759-16.903-21.887-31.915-35.819-44.462c14.185,3.404,26.986,8.296,38.362,13.083c3.76,1.582,7.729,2.384,11.796,2.384
			c10.071,0,19.44-4.963,25.059-13.276c23.622-34.944,86.335-97.178,125.851-119.992c23.615-13.634,52.599-20.561,86.145-20.589
			c24.086-0.021,47.928-6.496,68.947-18.726l62.376-36.297L402.662,234.212z"/>
	</g>
</g>
<g>
	<g>
		<path d="M355.03,96.314c-16.275,0-29.516,13.241-29.516,29.516c0,16.276,13.241,29.516,29.516,29.516s29.516-13.241,29.516-29.516
			S371.305,96.314,355.03,96.314z M355.03,138.48c-6.975,0-12.65-5.674-12.65-12.65c0-6.975,5.676-12.65,12.65-12.65
			c6.975,0,12.65,5.674,12.65,12.65C367.68,132.805,362.006,138.48,355.03,138.48z"/>
	</g>
</g>
<g>
	<g>
		<path d="M421.091,4.603c-20.537,0-37.246,16.709-37.246,37.246c-0.001,20.539,16.708,37.247,37.246,37.247
			s37.246-16.709,37.246-37.247C458.337,21.312,441.628,4.603,421.091,4.603z M421.091,62.23c-11.238,0-20.38-9.143-20.38-20.381
			c-0.001-11.237,9.142-20.38,20.38-20.38c11.238,0,20.38,9.143,20.38,20.38C441.471,53.087,432.328,62.23,421.091,62.23z"/>
	</g>
</g>
<g>
	<g>
		<path d="M272.968,298.076c-2.33-4.034-7.487-5.414-11.521-3.087l-104.08,60.091c-4.033,2.329-5.415,7.487-3.087,11.52
			c1.562,2.705,4.397,4.218,7.312,4.218c1.43,0,2.881-0.365,4.209-1.131l104.08-60.091
			C273.914,307.267,275.296,302.11,272.968,298.076z"/>
	</g>
</g>
</svg>